<mxfile host="app.diagrams.net" modified="2022-08-22T02:20:14.430Z" agent="5.0 (Windows NT 10.0; Win64; x64) AppleWebKit/537.36 (KHTML, like Gecko) Chrome/104.0.0.0 Safari/537.36" etag="DQGQOu4MwOeEJipJpaFo" version="20.2.5" type="github">
  <diagram id="RRsUvj00Xs9o_jeMmbOu" name="Page-1">
    <mxGraphModel dx="901" dy="542" grid="1" gridSize="10" guides="1" tooltips="1" connect="1" arrows="1" fold="1" page="1" pageScale="1" pageWidth="850" pageHeight="1100" math="0" shadow="0">
      <root>
        <mxCell id="0" />
        <mxCell id="1" parent="0" />
        <mxCell id="Qf8aXCc4mS3kRUHrUKOv-1" value="&lt;font style=&quot;font-size: 19px;&quot;&gt;Start&lt;/font&gt;" style="ellipse;whiteSpace=wrap;html=1;fillColor=#008a00;strokeColor=#005700;fontColor=#ffffff;" vertex="1" parent="1">
          <mxGeometry x="315" y="10" width="120" height="40" as="geometry" />
        </mxCell>
        <mxCell id="Qf8aXCc4mS3kRUHrUKOv-10" style="edgeStyle=orthogonalEdgeStyle;rounded=0;orthogonalLoop=1;jettySize=auto;html=1;exitX=0.5;exitY=1;exitDx=0;exitDy=0;entryX=0.5;entryY=0;entryDx=0;entryDy=0;" edge="1" parent="1" source="Qf8aXCc4mS3kRUHrUKOv-2" target="Qf8aXCc4mS3kRUHrUKOv-3">
          <mxGeometry relative="1" as="geometry" />
        </mxCell>
        <mxCell id="Qf8aXCc4mS3kRUHrUKOv-2" value="&lt;font style=&quot;font-size: 21px;&quot;&gt;Input:int X&lt;/font&gt;" style="shape=parallelogram;perimeter=parallelogramPerimeter;whiteSpace=wrap;html=1;fixedSize=1;align=center;fillColor=#ffe6cc;strokeColor=#d79b00;" vertex="1" parent="1">
          <mxGeometry x="270" y="100" width="210" height="60" as="geometry" />
        </mxCell>
        <mxCell id="Qf8aXCc4mS3kRUHrUKOv-11" style="edgeStyle=orthogonalEdgeStyle;rounded=0;orthogonalLoop=1;jettySize=auto;html=1;exitX=0.5;exitY=1;exitDx=0;exitDy=0;" edge="1" parent="1" source="Qf8aXCc4mS3kRUHrUKOv-3" target="Qf8aXCc4mS3kRUHrUKOv-4">
          <mxGeometry relative="1" as="geometry" />
        </mxCell>
        <mxCell id="Qf8aXCc4mS3kRUHrUKOv-3" value="&lt;font style=&quot;font-size: 20px;&quot;&gt;Initialize:int xCopy&lt;/font&gt;" style="rounded=0;whiteSpace=wrap;html=1;fillColor=#dae8fc;strokeColor=#6c8ebf;" vertex="1" parent="1">
          <mxGeometry x="290" y="180" width="180" height="60" as="geometry" />
        </mxCell>
        <mxCell id="Qf8aXCc4mS3kRUHrUKOv-15" style="edgeStyle=orthogonalEdgeStyle;rounded=0;orthogonalLoop=1;jettySize=auto;html=1;exitX=0.5;exitY=1;exitDx=0;exitDy=0;entryX=0.553;entryY=-0.029;entryDx=0;entryDy=0;entryPerimeter=0;" edge="1" parent="1" source="Qf8aXCc4mS3kRUHrUKOv-4" target="Qf8aXCc4mS3kRUHrUKOv-5">
          <mxGeometry relative="1" as="geometry" />
        </mxCell>
        <mxCell id="Qf8aXCc4mS3kRUHrUKOv-4" value="&lt;font style=&quot;font-size: 20px;&quot;&gt;if xCopy&amp;gt;0&lt;/font&gt;" style="rhombus;whiteSpace=wrap;html=1;fillColor=#e1d5e7;strokeColor=#9673a6;" vertex="1" parent="1">
          <mxGeometry x="300" y="250" width="160" height="80" as="geometry" />
        </mxCell>
        <mxCell id="Qf8aXCc4mS3kRUHrUKOv-24" style="edgeStyle=orthogonalEdgeStyle;rounded=0;orthogonalLoop=1;jettySize=auto;html=1;exitX=0.5;exitY=1;exitDx=0;exitDy=0;fontSize=20;" edge="1" parent="1" source="Qf8aXCc4mS3kRUHrUKOv-5" target="Qf8aXCc4mS3kRUHrUKOv-6">
          <mxGeometry relative="1" as="geometry" />
        </mxCell>
        <mxCell id="Qf8aXCc4mS3kRUHrUKOv-5" value="&lt;font style=&quot;font-size: 20px;&quot;&gt;r=xCopy%10&lt;br&gt;while(xCopy .0){&lt;br&gt;sum=sum+r*r}&lt;/font&gt;" style="rounded=0;whiteSpace=wrap;html=1;fillColor=#dae8fc;strokeColor=#6c8ebf;" vertex="1" parent="1">
          <mxGeometry x="240" y="350" width="250" height="80" as="geometry" />
        </mxCell>
        <mxCell id="Qf8aXCc4mS3kRUHrUKOv-16" style="edgeStyle=orthogonalEdgeStyle;rounded=0;orthogonalLoop=1;jettySize=auto;html=1;exitX=0.5;exitY=1;exitDx=0;exitDy=0;entryX=0.5;entryY=0;entryDx=0;entryDy=0;" edge="1" parent="1" source="Qf8aXCc4mS3kRUHrUKOv-6" target="Qf8aXCc4mS3kRUHrUKOv-7">
          <mxGeometry relative="1" as="geometry" />
        </mxCell>
        <mxCell id="Qf8aXCc4mS3kRUHrUKOv-6" value="&lt;font style=&quot;font-size: 20px;&quot;&gt;print sum&lt;/font&gt;" style="shape=parallelogram;perimeter=parallelogramPerimeter;whiteSpace=wrap;html=1;fixedSize=1;fillColor=#ffe6cc;strokeColor=#d79b00;" vertex="1" parent="1">
          <mxGeometry x="240" y="460" width="250" height="60" as="geometry" />
        </mxCell>
        <mxCell id="Qf8aXCc4mS3kRUHrUKOv-7" value="&lt;font style=&quot;font-size: 20px;&quot;&gt;End&lt;/font&gt;" style="ellipse;whiteSpace=wrap;html=1;fillColor=#a20025;fontColor=#ffffff;strokeColor=#6F0000;" vertex="1" parent="1">
          <mxGeometry x="290" y="570" width="150" height="80" as="geometry" />
        </mxCell>
        <mxCell id="Qf8aXCc4mS3kRUHrUKOv-21" value="" style="endArrow=classic;html=1;rounded=0;exitX=0.5;exitY=1;exitDx=0;exitDy=0;" edge="1" parent="1" source="Qf8aXCc4mS3kRUHrUKOv-1" target="Qf8aXCc4mS3kRUHrUKOv-2">
          <mxGeometry width="50" height="50" relative="1" as="geometry">
            <mxPoint x="380" y="60" as="sourcePoint" />
            <mxPoint x="385" y="110" as="targetPoint" />
            <Array as="points">
              <mxPoint x="375" y="90" />
            </Array>
          </mxGeometry>
        </mxCell>
      </root>
    </mxGraphModel>
  </diagram>
</mxfile>
